<svg width="48" height="48" version="1.1" viewBox="0 96 960 960" xmlns="http://www.w3.org/2000/svg"><path d="m580 806q20.9 0 35.4-14.6 14.5-14.6 14.5-35.5 0-20.9-14.6-35.4-14.6-14.5-35.5-14.5-20.9 0-35.4 14.6-14.5 14.6-14.5 35.5 0 20.9 14.6 35.4 14.6 14.5 35.5 14.5zm-202-6 246-246-42-42-246 246 42 42zm2.12-194q20.9 0 35.4-14.6 14.5-14.6 14.5-35.5 0-20.9-14.6-35.4-14.6-14.5-35.5-14.5-20.9 0-35.4 14.6-14.5 14.6-14.5 35.5 0 20.9 14.6 35.4 14.6 14.5 35.5 14.5zm99.9 370q-137 0-228-94t-91.5-234q0-100 79.5-218t240-254q161 137 240 254t79.5 218q0 140-91.5 234t-228 94zm0-60q112 0 186-76.5t74-192q0-78.7-66.5-179t-194-212q-127 112-194 212t-66.5 179q0 115 74 192t186 76.5z" fill="#818181"/></svg>