<svg width="48" height="48" version="1.1" viewBox="0 96 960 960" xmlns="http://www.w3.org/2000/svg"><path d="m480 716q58.2 0 99.2-40.8 41-40.8 41-99 0-58.2-40.8-99.2-40.8-41-99-41-58.2 0-99.2 40.8-41 40.8-41 99 0 58.2 40.8 99.2 40.8 41 99 41zm0.235 60q-83 0-142-58.5t-58.5-142q0-83 58.5-142t142-58.5q83 0 142 58.5t58.5 142q0 83-58.5 142t-142 58.5zm-410-170q-12.8 0-21.4-8.68-8.62-8.68-8.62-21.5 0-12.8 8.62-21.3t21.4-8.5h100q12.8 0 21.4 8.68 8.62 8.68 8.62 21.5 0 12.8-8.62 21.3t-21.4 8.5h-100zm720 0q-12.8 0-21.4-8.68-8.62-8.68-8.62-21.5 0-12.8 8.62-21.3t21.4-8.5h100q12.8 0 21.4 8.68 8.62 8.68 8.62 21.5 0 12.8-8.62 21.3t-21.4 8.5h-100zm-310-310q-12.8 0-21.3-8.62t-8.5-21.4v-100q0-12.8 8.68-21.4 8.68-8.62 21.5-8.62 12.8 0 21.3 8.62t8.5 21.4v100q0 12.8-8.68 21.4-8.68 8.62-21.5 8.62zm0 720q-12.8 0-21.3-8.62-8.5-8.63-8.5-21.4v-100q0-12.8 8.68-21.4 8.68-8.62 21.5-8.62 12.8 0 21.3 8.62t8.5 21.4v100q0 12.8-8.68 21.4-8.68 8.62-21.5 8.62zm-240-638-57-56q-9-9-8.63-21.6 0.37-12.6 8.53-21.5 8.9-8.9 21.5-8.9 12.6 0 21.6 9l56 57q8 9 8 21t-8 20.5q-8 8.5-20.5 8.5t-21.5-8zm494 495-56-57q-8-9-8-21.4t8.5-20.6q8.5-9 20.5-9t21 9l57 56q9 9 8.63 21.6-0.37 12.6-8.53 21.5-8.9 8.9-21.5 8.9-12.6 0-21.6-9zm-56-495q-9-9-9-21t9-21l56-57q9-9 21.6-8.63 12.6 0.37 21.5 8.53 8.9 8.9 8.9 21.5 0 12.6-9 21.6l-57 56q-8 8-20.4 8-12.4 0-21.6-8zm-495 495q-8.9-8.9-8.9-21.5 0-12.6 9-21.6l57-56q8.8-9 20.9-9t20.7 9q9.39 9 9.39 21t-9 21l-56 57q-9 9-21.6 8.63-12.6-0.37-21.5-8.53z" fill="#818181"/></svg>