<?xml version="1.0" encoding="UTF-8" standalone="no"?>
<svg
   height="48"
   width="48"
   version="1.1"
   id="svg4"
   sodipodi:docname="pH.svg"
   inkscape:version="1.2.1 (9c6d41e410, 2022-07-14)"
   xmlns:inkscape="http://www.inkscape.org/namespaces/inkscape"
   xmlns:sodipodi="http://sodipodi.sourceforge.net/DTD/sodipodi-0.dtd"
   xmlns="http://www.w3.org/2000/svg"
   xmlns:svg="http://www.w3.org/2000/svg">
  <defs
     id="defs8" />
  <sodipodi:namedview
     id="namedview6"
     pagecolor="#ffffff"
     bordercolor="#000000"
     borderopacity="0.25"
     inkscape:showpageshadow="2"
     inkscape:pageopacity="0.0"
     inkscape:pagecheckerboard="0"
     inkscape:deskcolor="#d1d1d1"
     showgrid="false"
     inkscape:zoom="16.75"
     inkscape:cx="24"
     inkscape:cy="24.029851"
     inkscape:window-width="1920"
     inkscape:window-height="991"
     inkscape:window-x="-9"
     inkscape:window-y="-9"
     inkscape:window-maximized="1"
     inkscape:current-layer="svg4" />
  <path
     d="M8.6 42q-2.05 0-2.8-2.1t.4-3.4l12.4-14V9H16q-.6 0-1.05-.45-.45-.45-.45-1.05 0-.6.45-1.05Q15.4 6 16 6h16q.6 0 1.05.45.45.45.45 1.05 0 .6-.45 1.05Q32.6 9 32 9h-2.6v13.5l12.4 14q1.2 1.35.425 3.425Q41.45 42 39.4 42ZM8 39h32L26.4 23.6V9h-4.8v14.6Zm15.9-15Z"
     id="path2"
     style="fill:#818181;fill-opacity:1" />
</svg>
