<?xml version="1.0" encoding="UTF-8" standalone="no"?>
<svg
   height="48"
   width="48"
   version="1.1"
   id="svg260"
   sodipodi:docname="zoom_out.svg"
   inkscape:version="1.2.1 (9c6d41e410, 2022-07-14)"
   xmlns:inkscape="http://www.inkscape.org/namespaces/inkscape"
   xmlns:sodipodi="http://sodipodi.sourceforge.net/DTD/sodipodi-0.dtd"
   xmlns="http://www.w3.org/2000/svg"
   xmlns:svg="http://www.w3.org/2000/svg">
  <defs
     id="defs264" />
  <sodipodi:namedview
     id="namedview262"
     pagecolor="#ffffff"
     bordercolor="#000000"
     borderopacity="0.25"
     inkscape:showpageshadow="2"
     inkscape:pageopacity="0.0"
     inkscape:pagecheckerboard="0"
     inkscape:deskcolor="#d1d1d1"
     showgrid="false"
     inkscape:zoom="16.75"
     inkscape:cx="24"
     inkscape:cy="24.029851"
     inkscape:window-width="1920"
     inkscape:window-height="991"
     inkscape:window-x="-9"
     inkscape:window-y="-9"
     inkscape:window-maximized="1"
     inkscape:current-layer="svg260" />
  <path
     d="M39.8 41.95 26.65 28.8q-1.5 1.3-3.5 2.025-2 .725-4.25.725-5.4 0-9.15-3.75T6 18.75q0-5.3 3.75-9.05 3.75-3.75 9.1-3.75 5.3 0 9.025 3.75 3.725 3.75 3.725 9.05 0 2.15-.7 4.15-.7 2-2.1 3.75L42 39.75Zm-20.95-13.4q4.05 0 6.9-2.875Q28.6 22.8 28.6 18.75t-2.85-6.925Q22.9 8.95 18.85 8.95q-4.1 0-6.975 2.875T9 18.75q0 4.05 2.875 6.925t6.975 2.875Zm-5.1-8.35v-3H23.8v3Z"
     id="path258"
     style="fill:#818181;fill-opacity:1" />
</svg>
